<?xml version="1.0" standalone="no"?>
<!DOCTYPE svg PUBLIC "-//W3C//DTD SVG 20010904//EN"
 "http://www.w3.org/TR/2001/REC-SVG-20010904/DTD/svg10.dtd">
<svg version="1.0" xmlns="http://www.w3.org/2000/svg"
 width="800.000000pt" height="800.000000pt" viewBox="0 0 800.000000 800.000000"
 preserveAspectRatio="xMidYMid meet">

<g transform="translate(0.000000,800.000000) scale(0.100000,-0.100000)"
fill="#000000" stroke="none">
<path d="M1753 5984 c-44 -22 -66 -60 -66 -113 0 -38 5 -49 36 -78 30 -27 45
-33 79 -33 26 0 55 8 73 20 16 10 39 17 50 15 11 -3 193 -25 405 -51 212 -25
387 -47 389 -49 2 -3 151 -787 395 -2088 l42 -228 -23 -27 c-45 -50 -172 -247
-198 -306 -55 -124 -65 -226 -30 -310 16 -37 83 -102 121 -116 16 -6 567 -10
1445 -10 l1420 0 24 25 c34 33 33 77 -1 104 l-27 21 -1413 0 -1414 0 -16 25
c-43 66 21 236 153 410 l69 90 880 2 c483 2 1057 3 1275 3 308 0 399 3 413 13
12 9 87 246 242 762 124 413 229 768 234 790 19 85 -29 183 -111 225 -38 20
-66 20 -1628 20 l-1589 0 -5 23 c-3 12 -33 173 -68 357 -34 184 -65 338 -68
343 -4 4 -214 32 -466 63 -428 52 -460 57 -491 80 -42 32 -90 39 -131 18z
m2222 -1125 c4 -55 10 -147 14 -205 l6 -104 -456 0 -455 0 -33 178 c-18 97
-35 189 -38 205 l-5 27 480 0 480 0 7 -101z m1041 -51 c-4 -84 -9 -177 -12
-205 l-5 -53 -430 0 -429 0 -1 33 c0 17 -6 108 -12 200 -7 93 -10 171 -8 173
2 2 207 4 454 4 l449 0 -6 -152z m1134 132 c11 -11 20 -27 20 -36 0 -13 -55
-207 -91 -321 l-11 -33 -460 0 -460 0 7 163 c3 89 8 181 11 205 l5 42 480 0
c466 0 480 -1 499 -20z m-2139 -582 c0 -24 6 -116 12 -205 l12 -163 -422 0
-422 0 -10 53 c-6 28 -24 121 -39 205 l-29 152 449 0 448 0 1 -42z m985 25
c-2 -10 -8 -102 -11 -205 l-7 -188 -399 0 c-378 0 -399 1 -399 18 0 24 -18
273 -25 340 l-5 52 426 0 c400 0 425 -1 420 -17z m1024 10 c0 -5 -27 -96 -59
-203 l-58 -195 -392 -3 -392 -2 5 67 c3 38 8 130 12 206 l6 137 439 0 c241 0
439 -3 439 -7z m-1962 -730 c7 -98 12 -190 12 -205 l0 -28 -388 0 -388 0 -33
178 c-18 97 -35 189 -38 205 l-5 27 414 0 415 0 11 -177z m908 65 c-4 -62 -9
-155 -12 -205 l-6 -93 -363 0 -363 0 -6 63 c-3 34 -8 103 -11 152 -3 50 -8
114 -11 143 l-5 52 391 0 392 0 -6 -112z m832 -84 c-32 -108 -61 -200 -64
-205 -3 -5 -147 -9 -321 -9 l-316 0 6 152 c4 83 7 175 7 205 l0 53 374 0 373
0 -59 -196z"/>
<path d="M3238 2463 c-207 -124 -149 -421 90 -459 53 -8 137 17 184 56 20 17
49 55 64 86 54 110 14 244 -90 309 -42 25 -61 30 -125 33 -68 3 -81 0 -123
-25z"/>
<path d="M5340 2474 c-46 -20 -97 -69 -123 -119 -27 -53 -29 -155 -3 -207 43
-89 128 -142 226 -142 77 0 130 24 180 80 45 52 60 93 60 164 0 100 -58 189
-147 227 -43 17 -149 16 -193 -3z"/>
</g>
</svg>
