<?xml version="1.0" standalone="no"?>
<!DOCTYPE svg PUBLIC "-//W3C//DTD SVG 20010904//EN"
 "http://www.w3.org/TR/2001/REC-SVG-20010904/DTD/svg10.dtd">
<svg version="1.0" xmlns="http://www.w3.org/2000/svg"
 width="800.000000pt" height="801.000000pt" viewBox="0 0 800.000000 801.000000"
 preserveAspectRatio="xMidYMid meet">

<g transform="translate(0.000000,801.000000) scale(0.100000,-0.100000)"
fill="#000000" stroke="none">
<path d="M3130 5488 c-54 -15 -434 -397 -494 -498 -189 -312 -179 -714 29
-1145 247 -511 741 -990 1247 -1209 214 -92 368 -126 575 -126 143 0 225 13
343 55 150 54 217 104 444 331 182 183 198 202 212 252 18 62 14 123 -13 180
-23 49 -389 414 -445 444 -56 29 -166 32 -218 4 -19 -10 -115 -97 -212 -194
-98 -97 -185 -177 -194 -178 -8 -1 -41 4 -72 12 -250 65 -655 425 -847 751
-46 79 -85 184 -85 231 0 19 40 65 176 201 97 97 185 194 196 216 29 57 29
155 -1 214 -32 61 -393 420 -452 449 -49 24 -127 28 -189 10z m120 -158 c8 -5
97 -91 198 -191 168 -169 182 -185 182 -218 0 -34 -14 -50 -185 -221 -197
-197 -205 -208 -205 -303 0 -69 17 -130 65 -232 77 -164 178 -302 353 -478
301 -304 597 -471 788 -443 47 7 55 14 234 191 102 101 197 188 212 194 15 6
37 7 48 3 28 -11 380 -361 391 -389 5 -13 5 -33 0 -45 -5 -13 -96 -109 -203
-214 -180 -178 -199 -195 -278 -232 -113 -54 -183 -71 -315 -79 -652 -35
-1523 655 -1795 1422 -52 147 -73 263 -72 405 0 146 19 232 78 356 35 72 56
97 239 282 204 206 222 219 265 192z"/>
</g>
</svg>
