<?xml version="1.0" standalone="no"?>
<!DOCTYPE svg PUBLIC "-//W3C//DTD SVG 20010904//EN"
 "http://www.w3.org/TR/2001/REC-SVG-20010904/DTD/svg10.dtd">
<svg version="1.0" xmlns="http://www.w3.org/2000/svg"
 width="512.000000pt" height="512.000000pt" viewBox="0 0 512.000000 512.000000"
 preserveAspectRatio="xMidYMid meet">

<g transform="translate(0.000000,512.000000) scale(0.100000,-0.100000)"
fill="#000000" stroke="none">
<path d="M2300 4676 c-479 -63 -905 -271 -1241 -606 -408 -407 -628 -936 -628
-1510 0 -1016 711 -1885 1711 -2089 309 -63 673 -51 983 34 424 115 823 378
1097 723 308 388 467 842 467 1332 0 724 -355 1381 -964 1782 -247 162 -503
264 -803 319 -143 26 -475 34 -622 15z m585 -295 c802 -149 1405 -784 1509
-1589 45 -351 -10 -695 -164 -1018 -52 -110 -123 -231 -170 -292 l-18 -22 -55
77 c-176 249 -441 404 -743 433 -129 12 -1239 12 -1368 0 -170 -17 -333 -74
-473 -167 -85 -56 -208 -177 -270 -266 l-55 -77 -18 22 c-87 112 -208 351
-260 513 -133 419 -117 850 46 1257 227 566 740 996 1336 1118 165 34 230 39
418 35 119 -3 210 -10 285 -24z m447 -2710 c204 -52 376 -189 474 -375 l37
-70 -25 -20 c-14 -12 -54 -45 -89 -75 -156 -132 -393 -262 -603 -330 -302 -99
-629 -116 -946 -50 -273 56 -583 206 -789 380 -35 30 -75 63 -89 75 l-25 20
36 70 c97 184 270 322 471 374 66 18 121 19 772 19 660 1 705 0 776 -18z"/>
<path d="M2385 3791 c-143 -39 -261 -108 -357 -209 -315 -330 -320 -865 -10
-1194 151 -160 331 -239 541 -239 214 0 394 80 548 245 146 155 223 359 223
586 0 367 -222 691 -547 797 -108 36 -295 42 -398 14z m304 -280 c366 -114
483 -633 209 -927 -98 -104 -207 -154 -336 -154 -135 0 -238 47 -337 151 -275
292 -169 797 194 925 83 30 185 32 270 5z"/>
</g>
</svg>
